<svg width="16" height="16" viewBox="0 0 16 16" fill="none" xmlns="http://www.w3.org/2000/svg">
<g clip-path="url(#clip0_561_17)">
<path d="M2.43282 9.26871L1.61111 12.5556L5.16667 11.6667L12.2778 4.55556C13.0142 3.81918 13.0142 2.62527 12.2778 1.88889C11.5414 1.15251 10.3475 1.15251 9.61111 1.88889L2.69586 8.80414C2.5677 8.9323 2.47678 9.09288 2.43282 9.26871Z" stroke="black" stroke-linejoin="round"/>
<path d="M8.11111 3.05556L11.1111 6.05556" stroke="black"/>
<path d="M6.5 13C6.5 13 6.97607 12.1746 7.50002 12C8.32845 11.7239 8.62678 13 9.50002 13C10.3733 13 10.6268 12 11.5 12C12.3733 12 12.6716 13.2761 13.5 13C14.024 12.8254 14.5 12 14.5 12" stroke="black" stroke-linecap="round"/>
</g>
<defs>
<clipPath id="clip0_561_17">
<rect width="16" height="16" fill="white"/>
</clipPath>
</defs>
</svg>
