<svg width="16" height="16" viewBox="0 0 16 16" fill="none" xmlns="http://www.w3.org/2000/svg">
<path d="M14.5 8C14.5 11.5899 11.5899 14.5 8 14.5C4.41015 14.5 1.5 11.5899 1.5 8C1.5 4.41015 4.41015 1.5 8 1.5C11.5899 1.5 14.5 4.41015 14.5 8Z" stroke="black"/>
<path d="M4.51831 10.9285L5.86556 8.23395L9.00915 9.5812L9.45823 4.1922L12.1527 6.43762" stroke="black" stroke-linecap="round" stroke-linejoin="round"/>
<path d="M6.76373 8.2259C6.76373 8.72194 6.36161 9.12406 5.86557 9.12406C5.36952 9.12406 4.9674 8.72194 4.9674 8.2259C4.9674 7.72985 5.36952 7.32773 5.86557 7.32773C6.36161 7.32773 6.76373 7.72985 6.76373 8.2259Z" fill="black"/>
<path d="M9.90732 9.54524C9.90732 10.0413 9.50519 10.4434 9.00915 10.4434C8.51311 10.4434 8.11098 10.0413 8.11098 9.54524C8.11098 9.04919 8.51311 8.64707 9.00915 8.64707C9.50519 8.64707 9.90732 9.04919 9.90732 9.54524Z" fill="black"/>
<path d="M10.2963 4.1922C10.2963 4.68825 9.8942 5.09037 9.39815 5.09037C8.90211 5.09037 8.49999 4.68825 8.49999 4.1922C8.49999 3.69616 8.90211 3.29404 9.39815 3.29404C9.8942 3.29404 10.2963 3.69616 10.2963 4.1922Z" fill="black"/>
<path d="M13.0509 6.43764C13.0509 6.93368 12.6488 7.3358 12.1527 7.3358C11.6567 7.3358 11.2546 6.93368 11.2546 6.43764C11.2546 5.94159 11.6567 5.53947 12.1527 5.53947C12.6488 5.53947 13.0509 5.94159 13.0509 6.43764Z" fill="black"/>
<path d="M5.41648 10.9285C5.41648 11.4245 5.01436 11.8266 4.51832 11.8266C4.02227 11.8266 3.62015 11.4245 3.62015 10.9285C3.62015 10.4324 4.02227 10.0303 4.51832 10.0303C5.01436 10.0303 5.41648 10.4324 5.41648 10.9285Z" fill="black"/>
</svg>
